<svg xmlns="http://www.w3.org/2000/svg" viewBox="0 0 960 960" width="24" height="24">
    <path fill="#000000" d="M520 840v-80h80v80h-80Zm-80-80v-200h80v200h-80Zm320-120v-160h80v160h-80Zm-80-160v-80h80v80h-80Zm-480 80v-80h80v80h-80Zm-80-80v-80h80v80h-80Zm360-280v-80h80v80h-80ZM180 300h120V180H180v120Zm-60 60V120h240v240H120Zm60 420h120V660H180v120Zm-60 60V600h240v240H120Zm540-540h120V180H660v120Zm-60 60V120h240v240H600ZM440 600v-80h80v80h-80Zm0-120v-80h80v80h-80Zm80 120v-80h80v80h-80Zm80-120v-80h80v80h-80Zm0 240v-80h80v80h-80Zm80-80v-80h80v80h-80Zm0-160v-80h80v80h-80ZM180 240h60v-60h-60v60Zm0 480h60v-60h-60v60Zm480-480h60v-60h-60v60Z"/>
</svg>